<?xml version="1.0" encoding="UTF-8" standalone="no"?>
<!DOCTYPE svg PUBLIC "-//W3C//DTD SVG 1.1//EN"
 "http://www.w3.org/Graphics/SVG/1.1/DTD/svg11.dtd">
<!-- Generated by graphviz version 12.2.1 (20241206.2353)
 -->
<!-- Title: MP3Track Pages: 1 -->
<svg width="410pt" height="381pt"
 viewBox="0.00 0.00 409.50 381.25" xmlns="http://www.w3.org/2000/svg" xmlns:xlink="http://www.w3.org/1999/xlink">
<g id="graph0" class="graph" transform="scale(1 1) rotate(0) translate(4 377.25)">
<title>MP3Track</title>
<!-- Node1 -->
<g id="Node000001" class="node">
<title>Node1</title>
<g id="a_Node000001"><a xlink:title=" ">
<polygon fill="#999999" stroke="none" points="293.25,-185.5 141.75,-185.5 141.75,0 293.25,0 293.25,-185.5"/>
<text text-anchor="start" x="195" y="-172" font-family="Helvetica,sans-Serif" font-size="10.00">MP3Track</text>
<text text-anchor="start" x="147.25" y="-156.75" font-family="Helvetica,sans-Serif" font-size="10.00">&#45;</text>
<text text-anchor="start" x="155.75" y="-156.75" font-family="Helvetica,sans-Serif" font-size="10.00">unsigned int sample</text>
<text text-anchor="start" x="155.75" y="-145.5" font-family="Helvetica,sans-Serif" font-size="10.00">_rate_</text>
<text text-anchor="start" x="145.75" y="-130.25" font-family="Helvetica,sans-Serif" font-size="10.00">+</text>
<text text-anchor="start" x="155.75" y="-130.25" font-family="Helvetica,sans-Serif" font-size="10.00">MP3Track(const MetaData</text>
<text text-anchor="start" x="155.75" y="-119" font-family="Helvetica,sans-Serif" font-size="10.00"> &amp;meta_data, const AudioData</text>
<text text-anchor="start" x="155.75" y="-107.75" font-family="Helvetica,sans-Serif" font-size="10.00"> &amp;data, const unsigned int</text>
<text text-anchor="start" x="155.75" y="-96.5" font-family="Helvetica,sans-Serif" font-size="10.00"> sample_rate)</text>
<text text-anchor="start" x="145.75" y="-81.25" font-family="Helvetica,sans-Serif" font-size="10.00">+</text>
<text text-anchor="start" x="155.75" y="-81.25" font-family="Helvetica,sans-Serif" font-size="10.00">TrackInfo getTrackInfo</text>
<text text-anchor="start" x="155.75" y="-70" font-family="Helvetica,sans-Serif" font-size="10.00">() const override</text>
<text text-anchor="start" x="145.75" y="-54.75" font-family="Helvetica,sans-Serif" font-size="10.00">+</text>
<text text-anchor="start" x="155.75" y="-54.75" font-family="Helvetica,sans-Serif" font-size="10.00">AudioData &amp; getAudioData</text>
<text text-anchor="start" x="155.75" y="-43.5" font-family="Helvetica,sans-Serif" font-size="10.00">Ref() override</text>
<text text-anchor="start" x="145.75" y="-28.25" font-family="Helvetica,sans-Serif" font-size="10.00">+</text>
<text text-anchor="start" x="155.75" y="-28.25" font-family="Helvetica,sans-Serif" font-size="10.00">void setCurrentSample</text>
<text text-anchor="start" x="155.75" y="-17" font-family="Helvetica,sans-Serif" font-size="10.00">(const size_t &amp;position)</text>
<text text-anchor="start" x="155.75" y="-5.75" font-family="Helvetica,sans-Serif" font-size="10.00"> override</text>
<polygon fill="#666666" stroke="#666666" points="141.75,-168.25 141.75,-168.25 293.25,-168.25 293.25,-168.25 141.75,-168.25"/>
<polygon fill="#666666" stroke="#666666" points="141.75,-141.75 141.75,-141.75 153.75,-141.75 153.75,-141.75 141.75,-141.75"/>
<polygon fill="#666666" stroke="#666666" points="153.75,-141.75 153.75,-141.75 293.25,-141.75 293.25,-141.75 153.75,-141.75"/>
<polygon fill="none" stroke="#666666" points="141.75,0 141.75,-185.5 293.25,-185.5 293.25,0 141.75,0"/>
</a>
</g>
</g>
<!-- Node2 -->
<g id="Node000002" class="node">
<title>Node2</title>
<g id="a_Node000002"><a xlink:href="class_generic_track.html" target="_top" xlink:title="Abstract base class for all track types.">
<polygon fill="white" stroke="none" points="147,-373.25 0,-373.25 0,-232.75 147,-232.75 147,-373.25"/>
<text text-anchor="start" x="44.25" y="-359.75" font-family="Helvetica,sans-Serif" font-size="10.00">GenericTrack</text>
<text text-anchor="start" x="72" y="-344.5" font-family="Helvetica,sans-Serif" font-size="10.00"> </text>
<text text-anchor="start" x="4" y="-329.25" font-family="Helvetica,sans-Serif" font-size="10.00">+</text>
<text text-anchor="start" x="14" y="-329.25" font-family="Helvetica,sans-Serif" font-size="10.00">virtual ~GenericTrack</text>
<text text-anchor="start" x="14" y="-318" font-family="Helvetica,sans-Serif" font-size="10.00">()=default</text>
<text text-anchor="start" x="4" y="-302.75" font-family="Helvetica,sans-Serif" font-size="10.00">+</text>
<text text-anchor="start" x="14" y="-302.75" font-family="Helvetica,sans-Serif" font-size="10.00">virtual TrackInfo getTrack</text>
<text text-anchor="start" x="14" y="-291.5" font-family="Helvetica,sans-Serif" font-size="10.00">Info() const =0</text>
<text text-anchor="start" x="4" y="-276.25" font-family="Helvetica,sans-Serif" font-size="10.00">+</text>
<text text-anchor="start" x="14" y="-276.25" font-family="Helvetica,sans-Serif" font-size="10.00">virtual AudioData &amp;</text>
<text text-anchor="start" x="14" y="-265" font-family="Helvetica,sans-Serif" font-size="10.00"> getAudioDataRef()=0</text>
<text text-anchor="start" x="4" y="-249.75" font-family="Helvetica,sans-Serif" font-size="10.00">+</text>
<text text-anchor="start" x="14" y="-249.75" font-family="Helvetica,sans-Serif" font-size="10.00">virtual void setCurrentSample</text>
<text text-anchor="start" x="14" y="-238.5" font-family="Helvetica,sans-Serif" font-size="10.00">(const size_t &amp;position)=0</text>
<polygon fill="#666666" stroke="#666666" points="0,-356 0,-356 147,-356 147,-356 0,-356"/>
<polygon fill="#666666" stroke="#666666" points="0,-340.75 0,-340.75 147,-340.75 147,-340.75 0,-340.75"/>
<polygon fill="none" stroke="#666666" points="0,-232.75 0,-373.25 147,-373.25 147,-232.75 0,-232.75"/>
</a>
</g>
</g>
<!-- Node2&#45;&gt;Node1 -->
<g id="edge1_Node000001_Node000002" class="edge">
<title>Node2&#45;&gt;Node1</title>
<g id="a_edge1_Node000001_Node000002"><a xlink:title=" ">
<path fill="none" stroke="#63b8ff" d="M127.77,-223.51C136.41,-211.02 145.41,-198.01 154.23,-185.25"/>
<polygon fill="none" stroke="#63b8ff" points="124.92,-221.48 122.11,-231.7 130.68,-225.47 124.92,-221.48"/>
</a>
</g>
</g>
<!-- Node3 -->
<g id="Node000003" class="node">
<title>Node3</title>
<g id="a_Node000003"><a xlink:href="struct_meta_data.html" target="_top" xlink:title="Holds data related to track context.">
<polygon fill="white" stroke="none" points="269.62,-350.75 165.38,-350.75 165.38,-255.25 269.62,-255.25 269.62,-350.75"/>
<text text-anchor="start" x="196.12" y="-337.25" font-family="Helvetica,sans-Serif" font-size="10.00">MetaData</text>
<text text-anchor="start" x="169.38" y="-322" font-family="Helvetica,sans-Serif" font-size="10.00">+</text>
<text text-anchor="start" x="179.38" y="-322" font-family="Helvetica,sans-Serif" font-size="10.00">name_t track_name</text>
<text text-anchor="start" x="169.38" y="-306.75" font-family="Helvetica,sans-Serif" font-size="10.00">+</text>
<text text-anchor="start" x="179.38" y="-306.75" font-family="Helvetica,sans-Serif" font-size="10.00">name_t artist</text>
<text text-anchor="start" x="169.38" y="-291.5" font-family="Helvetica,sans-Serif" font-size="10.00">+</text>
<text text-anchor="start" x="179.38" y="-291.5" font-family="Helvetica,sans-Serif" font-size="10.00">name_t album</text>
<text text-anchor="start" x="169.38" y="-276.25" font-family="Helvetica,sans-Serif" font-size="10.00">+</text>
<text text-anchor="start" x="179.38" y="-276.25" font-family="Helvetica,sans-Serif" font-size="10.00">uint32_t duration</text>
<text text-anchor="start" x="216" y="-261" font-family="Helvetica,sans-Serif" font-size="10.00"> </text>
<polygon fill="#666666" stroke="#666666" points="165.38,-333.5 165.38,-333.5 269.62,-333.5 269.62,-333.5 165.38,-333.5"/>
<polygon fill="#666666" stroke="#666666" points="165.38,-272.5 165.38,-272.5 177.38,-272.5 177.38,-272.5 165.38,-272.5"/>
<polygon fill="#666666" stroke="#666666" points="177.38,-272.5 177.38,-272.5 269.62,-272.5 269.62,-272.5 177.38,-272.5"/>
<polygon fill="none" stroke="#666666" points="165.38,-255.25 165.38,-350.75 269.62,-350.75 269.62,-255.25 165.38,-255.25"/>
</a>
</g>
</g>
<!-- Node3&#45;&gt;Node1 -->
<g id="edge2_Node000001_Node000003" class="edge">
<title>Node3&#45;&gt;Node1</title>
<g id="a_edge2_Node000001_Node000003"><a xlink:title=" ">
<path fill="none" stroke="#63b8ff" d="M217.5,-255.26C217.5,-238.17 217.5,-218.06 217.5,-197.96"/>
<polygon fill="none" stroke="#63b8ff" points="217.5,-198.02 213.5,-192.02 217.5,-186.02 221.5,-192.02 217.5,-198.02"/>
</a>
</g>
<text text-anchor="middle" x="246" y="-205.25" font-family="Helvetica,sans-Serif" font-size="10.00" fill="grey"> &#45;meta_data_</text>
</g>
<!-- Node4 -->
<g id="Node000004" class="node">
<title>Node4</title>
<g id="a_Node000004"><a xlink:href="struct_audio_data.html" target="_top" xlink:title="Contains PCM audio samples and playback&#45;related data.">
<polygon fill="white" stroke="none" points="401.5,-358.38 287.5,-358.38 287.5,-247.62 401.5,-247.62 401.5,-358.38"/>
<text text-anchor="start" x="321.62" y="-344.88" font-family="Helvetica,sans-Serif" font-size="10.00">AudioData</text>
<text text-anchor="start" x="291.5" y="-329.62" font-family="Helvetica,sans-Serif" font-size="10.00">+</text>
<text text-anchor="start" x="301.5" y="-329.62" font-family="Helvetica,sans-Serif" font-size="10.00">int16_t * pcmData</text>
<text text-anchor="start" x="291.5" y="-314.38" font-family="Helvetica,sans-Serif" font-size="10.00">+</text>
<text text-anchor="start" x="301.5" y="-314.38" font-family="Helvetica,sans-Serif" font-size="10.00">size_t total_samples</text>
<text text-anchor="start" x="291.5" y="-299.12" font-family="Helvetica,sans-Serif" font-size="10.00">+</text>
<text text-anchor="start" x="301.5" y="-299.12" font-family="Helvetica,sans-Serif" font-size="10.00">size_t current_sample</text>
<text text-anchor="start" x="291.5" y="-283.88" font-family="Helvetica,sans-Serif" font-size="10.00">+</text>
<text text-anchor="start" x="301.5" y="-283.88" font-family="Helvetica,sans-Serif" font-size="10.00">int channels</text>
<text text-anchor="start" x="291.5" y="-268.62" font-family="Helvetica,sans-Serif" font-size="10.00">+</text>
<text text-anchor="start" x="301.5" y="-268.62" font-family="Helvetica,sans-Serif" font-size="10.00">float volume</text>
<text text-anchor="start" x="343" y="-253.38" font-family="Helvetica,sans-Serif" font-size="10.00"> </text>
<polygon fill="#666666" stroke="#666666" points="287.5,-341.12 287.5,-341.12 401.5,-341.12 401.5,-341.12 287.5,-341.12"/>
<polygon fill="#666666" stroke="#666666" points="287.5,-264.88 287.5,-264.88 299.5,-264.88 299.5,-264.88 287.5,-264.88"/>
<polygon fill="#666666" stroke="#666666" points="299.5,-264.88 299.5,-264.88 401.5,-264.88 401.5,-264.88 299.5,-264.88"/>
<polygon fill="none" stroke="#666666" points="287.5,-247.62 287.5,-358.38 401.5,-358.38 401.5,-247.62 287.5,-247.62"/>
</a>
</g>
</g>
<!-- Node4&#45;&gt;Node1 -->
<g id="edge3_Node000001_Node000004" class="edge">
<title>Node4&#45;&gt;Node1</title>
<g id="a_edge3_Node000001_Node000004"><a xlink:title=" ">
<path fill="none" stroke="#63b8ff" d="M311.46,-247.83C301.79,-231.96 290.87,-214.06 280,-196.23"/>
<polygon fill="none" stroke="#63b8ff" points="279.96,-196.17 273.42,-193.13 273.71,-185.92 280.25,-188.96 279.96,-196.17"/>
</a>
</g>
<text text-anchor="middle" x="317.85" y="-205.25" font-family="Helvetica,sans-Serif" font-size="10.00" fill="grey"> &#45;audio_data_</text>
</g>
</g>
</svg>
